<svg width="193" height="84" viewBox="0 0 193 84" fill="currentColor" xmlns="http://www.w3.org/2000/svg">
<path d="M3.564 73.4C1.632 73.4 0.324 74.816 0.324 76.784C0.324 78.74 1.56 80.156 3.492 80.156C4.836 80.156 6.168 79.568 6.552 77.804H4.968C4.74 78.572 4.152 78.872 3.576 78.872C2.664 78.872 2.016 78.116 2.016 76.76C2.016 75.416 2.7 74.684 3.564 74.684C4.2 74.684 4.776 75.128 4.908 75.752H6.492C6.264 74.156 4.92 73.4 3.564 73.4ZM11.2369 73.58C11.1289 73.568 10.9849 73.556 10.8769 73.556C10.1209 73.556 9.54488 73.868 9.17288 74.672V73.544H7.54088V80H9.19688V76.616C9.19688 75.404 9.73688 75.104 10.5529 75.104C10.7929 75.104 10.9969 75.104 11.2369 75.14V73.58ZM12.8529 82.1C14.4609 82.1 14.7849 81.812 15.5529 79.808L17.9169 73.544H16.2369L14.7369 78.2L13.2729 73.544H11.4609L13.9329 79.976L13.8609 80.156C13.5729 80.84 13.3329 80.828 12.7809 80.828H12.1569V82.1H12.8529ZM21.77 78.884C20.858 78.884 20.258 78.104 20.258 76.772C20.258 75.476 20.858 74.672 21.77 74.672C22.634 74.672 23.246 75.524 23.246 76.784C23.246 78.044 22.634 78.884 21.77 78.884ZM20.318 82.1V79.184C20.738 79.904 21.494 80.156 22.166 80.156C23.702 80.156 24.986 78.836 24.986 76.772C24.986 74.744 23.738 73.4 22.178 73.4C21.362 73.4 20.666 73.76 20.318 74.372V73.544H18.662V82.1H20.318ZM26.2845 73.544H25.3725V74.684H26.2845V78.26C26.2845 79.544 26.5605 80 28.0485 80H29.2605V78.812H28.7565C28.1685 78.812 27.9405 78.68 27.9405 78.02V74.684H29.2845V73.544H27.9405V71.792H26.2845V73.544ZM33.1536 74.696C34.0656 74.696 34.7136 75.428 34.7136 76.784C34.7136 78.14 34.0656 78.86 33.1536 78.86C32.2416 78.86 31.5936 78.14 31.5936 76.784C31.5936 75.428 32.2416 74.696 33.1536 74.696ZM33.1536 80.156C34.7856 80.156 36.3936 79.04 36.3936 76.784C36.3936 74.516 34.7856 73.4 33.1536 73.4C31.5216 73.4 29.9136 74.516 29.9136 76.784C29.9136 79.04 31.5216 80.156 33.1536 80.156ZM41.4841 77.516V76.076H37.5121V77.516H41.4841ZM44.4117 73.544H42.7557V80H44.4117V76.64C44.4117 75.62 44.6517 74.732 45.7437 74.732C46.6797 74.732 46.8597 75.464 46.8597 76.292V80H48.5157V75.932C48.5157 74.336 47.8317 73.4 46.2837 73.4C45.4797 73.4 44.7837 73.736 44.4117 74.396V73.544ZM53.9362 77.528C53.9362 78.476 53.5042 79.028 52.4602 79.028C51.7042 79.028 51.3442 78.644 51.3442 78.176C51.3442 77.456 52.0762 77.24 53.9362 77.048V77.528ZM54.0802 79.196C54.1162 79.52 54.1402 79.796 54.1882 80H55.7122C55.5802 79.46 55.5202 78.884 55.5202 77.864C55.5202 77.288 55.5442 76.412 55.5442 76.22C55.5442 74.048 54.2842 73.376 52.7602 73.376C51.0922 73.376 50.0602 74.312 49.9282 75.584H51.4762C51.5122 74.864 52.0402 74.54 52.6762 74.54C53.3482 74.54 53.8882 74.888 53.8882 75.884V75.992C51.3442 76.28 49.6402 76.736 49.6402 78.26C49.6402 79.436 50.7322 80.156 51.9682 80.156C52.9402 80.156 53.6122 79.868 54.0802 79.196ZM57.1517 73.544H56.2397V74.684H57.1517V78.26C57.1517 79.544 57.4277 80 58.9157 80H60.1277V78.812H59.6237C59.0357 78.812 58.8077 78.68 58.8077 78.02V74.684H60.1517V73.544H58.8077V71.792H57.1517V73.544ZM61.2128 73.544V80H62.8688V73.544H61.2128ZM61.2128 71.3V72.836H62.8688V71.3H61.2128ZM65.3494 73.544H63.6094L65.9614 80H67.7014L70.0174 73.544H68.3734L66.8614 78.32L65.3494 73.544ZM76.6343 77.228C76.6943 74.948 75.4583 73.4 73.4663 73.4C71.5583 73.4 70.2263 74.828 70.2263 76.748C70.2263 78.608 71.4383 80.156 73.5143 80.156C75.2783 80.156 76.2143 79.088 76.5623 78.128H74.8583C74.5223 78.692 74.0183 78.872 73.5023 78.872C72.7103 78.872 71.9663 78.332 71.8703 77.228H76.6343ZM73.4543 74.612C74.1503 74.612 74.9183 74.996 74.9543 76.088H71.8943C72.0263 74.996 72.8303 74.612 73.4543 74.612ZM83.2281 73.4C81.2961 73.4 79.9881 74.816 79.9881 76.784C79.9881 78.74 81.2241 80.156 83.1561 80.156C84.5001 80.156 85.8321 79.568 86.2161 77.804H84.6321C84.4041 78.572 83.8161 78.872 83.2401 78.872C82.3281 78.872 81.6801 78.116 81.6801 76.76C81.6801 75.416 82.3641 74.684 83.2281 74.684C83.8641 74.684 84.4401 75.128 84.5721 75.752H86.1561C85.9281 74.156 84.5841 73.4 83.2281 73.4ZM90.9009 73.58C90.7929 73.568 90.6489 73.556 90.5409 73.556C89.7849 73.556 89.2089 73.868 88.8369 74.672V73.544H87.2049V80H88.8609V76.616C88.8609 75.404 89.4009 75.104 90.2169 75.104C90.4569 75.104 90.6609 75.104 90.9009 75.14V73.58ZM97.7398 77.228C97.7998 74.948 96.5638 73.4 94.5718 73.4C92.6638 73.4 91.3318 74.828 91.3318 76.748C91.3318 78.608 92.5438 80.156 94.6198 80.156C96.3838 80.156 97.3198 79.088 97.6678 78.128H95.9638C95.6278 78.692 95.1238 78.872 94.6078 78.872C93.8158 78.872 93.0718 78.332 92.9758 77.228H97.7398ZM94.5598 74.612C95.2558 74.612 96.0238 74.996 96.0598 76.088H92.9998C93.1318 74.996 93.9358 74.612 94.5598 74.612ZM102.839 77.528C102.839 78.476 102.407 79.028 101.363 79.028C100.607 79.028 100.247 78.644 100.247 78.176C100.247 77.456 100.979 77.24 102.839 77.048V77.528ZM102.983 79.196C103.019 79.52 103.043 79.796 103.091 80H104.615C104.483 79.46 104.423 78.884 104.423 77.864C104.423 77.288 104.447 76.412 104.447 76.22C104.447 74.048 103.187 73.376 101.663 73.376C99.9945 73.376 98.9625 74.312 98.8305 75.584H100.379C100.415 74.864 100.943 74.54 101.579 74.54C102.251 74.54 102.791 74.888 102.791 75.884V75.992C100.247 76.28 98.5425 76.736 98.5425 78.26C98.5425 79.436 99.6345 80.156 100.871 80.156C101.843 80.156 102.515 79.868 102.983 79.196ZM106.054 73.544H105.142V74.684H106.054V78.26C106.054 79.544 106.33 80 107.818 80H109.03V78.812H108.526C107.938 78.812 107.71 78.68 107.71 78.02V74.684H109.054V73.544H107.71V71.792H106.054V73.544ZM110.115 73.544V80H111.771V73.544H110.115ZM110.115 71.3V72.836H111.771V71.3H110.115ZM114.252 73.544H112.512L114.864 80H116.604L118.92 73.544H117.276L115.764 78.32L114.252 73.544ZM125.537 77.228C125.597 74.948 124.361 73.4 122.369 73.4C120.461 73.4 119.129 74.828 119.129 76.748C119.129 78.608 120.341 80.156 122.417 80.156C124.181 80.156 125.117 79.088 125.465 78.128H123.761C123.425 78.692 122.921 78.872 122.405 78.872C121.613 78.872 120.869 78.332 120.773 77.228H125.537ZM122.357 74.612C123.053 74.612 123.821 74.996 123.857 76.088H120.797C120.929 74.996 121.733 74.612 122.357 74.612Z"/>
<path d="M0 23.3197C0 22.1215 0.396398 21.0059 1.27121 20.1244L7.46322 13.8854C8.25601 13.0866 9.3632 12.6045 10.5661 12.6045H29.7845V19.8077H9.04881C8.00997 19.8077 7.21718 20.6065 7.21718 21.5706V53.0138H0V23.3197Z"/>
<path d="M44.3009 53C43.1117 53 42.0045 52.518 41.1981 51.7191L35.0061 45.4801C34.1312 44.5986 33.7348 43.483 33.7348 42.2848V23.3197C33.7348 22.1215 34.1312 21.0059 35.0061 20.1244L41.1981 13.8854C41.9909 13.0866 43.098 12.6045 44.3009 12.6045H61.2913C62.4805 12.6045 63.5877 13.0866 64.3942 13.8854L70.5862 20.1244C71.461 21.0059 71.8574 22.1215 71.8574 23.3197V42.2848C71.8574 43.483 71.461 44.5986 70.5862 45.4801L64.3942 51.7191C63.6014 52.518 62.4942 53 61.2913 53H44.3009ZM62.8086 45.7969C63.8338 45.7969 64.6402 44.998 64.6402 44.0339V21.5568C64.6402 20.5927 63.8474 19.7939 62.8086 19.7939H42.7973C41.7585 19.7939 40.9657 20.5927 40.9657 21.5568V44.0339C40.9657 44.998 41.7585 45.7969 42.7973 45.7969H62.8086Z"/>
<path d="M89.5586 53C88.3694 53 87.2623 52.518 86.4558 51.7191L80.2638 45.4801C79.389 44.5986 78.9926 43.483 78.9926 42.2848V23.3197C78.9926 22.1215 79.389 21.0059 80.2638 20.1244L86.4558 13.8854C87.2486 13.0866 88.3558 12.6045 89.5586 12.6045H106.549C107.738 12.6045 108.845 13.0866 109.652 13.8854L115.844 20.1244C116.719 21.0059 117.115 22.1215 117.115 23.3197V42.2848C117.115 43.483 116.719 44.5986 115.844 45.4801L109.652 51.7191C108.859 52.518 107.752 53 106.549 53H89.5586ZM108.066 45.7969C109.091 45.7969 109.898 44.998 109.898 44.0339V21.5568C109.898 20.5927 109.105 19.7939 108.066 19.7939H88.055C87.0162 19.7939 86.2234 20.5927 86.2234 21.5568V44.0339C86.2234 44.998 87.0162 45.7969 88.055 45.7969H108.066Z"/>
<path d="M134.188 20.3586C132.998 20.3586 132.52 19.8765 131.727 19.0777L125.535 12.8387C124.66 11.9572 124.264 10.8416 124.264 9.64338V0.925232H131.495V11.4063C131.495 12.3704 132.288 13.1692 133.326 13.1692H151.902V20.3724H134.201L134.188 20.3586ZM131.167 52.1185L124.975 45.8795C124.578 45.4801 124.264 44.9154 124.264 44.2819V21.5568H131.495V45.7969L147.61 29.5588L152.613 34.517L135.144 52.1185C134.584 52.6832 133.873 53 133.162 53C132.452 53 131.727 52.6832 131.18 52.1185H131.167Z"/>
<path d="M156.577 45.8106H187.223L174.36 32.8505L179.281 27.8923L190.955 39.6542C191.433 40.1363 191.747 40.8524 191.747 41.5686V50.5347C191.747 51.1682 191.433 51.8155 190.955 52.215C190.476 52.697 189.765 53.0138 188.973 53.0138H156.577V45.8106ZM192.144 12.6045V19.8077H161.416L174.36 32.8505L169.44 37.8087L157.766 26.0467C157.288 25.5647 156.974 24.8485 156.974 24.1323V15.0974C156.974 14.4638 157.288 13.8165 157.766 13.4171C158.245 12.9351 158.956 12.6183 159.748 12.6183H192.144V12.6045Z"/>
</svg>
