<svg width="201" height="62" viewBox="0 0 201 62" fill="none" xmlns="http://www.w3.org/2000/svg">
<g filter="url(#filter0_d_79_2)">
<path d="M4 23.3198C4 22.1216 4.3964 21.006 5.27121 20.1245L11.4632 13.8855C12.256 13.0866 13.3632 12.6046 14.5661 12.6046H33.7845V19.8077H13.0488C12.01 19.8077 11.2172 20.6066 11.2172 21.5706V53.0138H4V23.3198Z" fill="#F5F5F5"/>
<path d="M48.3009 53.0001C47.1117 53.0001 46.0045 52.518 45.1981 51.7192L39.0061 45.4801C38.1312 44.5987 37.7348 43.4831 37.7348 42.2849V23.3198C37.7348 22.1216 38.1312 21.006 39.0061 20.1245L45.1981 13.8855C45.9909 13.0866 47.098 12.6046 48.3009 12.6046H65.2913C66.4805 12.6046 67.5877 13.0866 68.3942 13.8855L74.5862 20.1245C75.461 21.006 75.8574 22.1216 75.8574 23.3198V42.2849C75.8574 43.4831 75.461 44.5987 74.5862 45.4801L68.3942 51.7192C67.6014 52.518 66.4942 53.0001 65.2913 53.0001H48.3009ZM66.8086 45.7969C67.8338 45.7969 68.6402 44.9981 68.6402 44.034V21.5569C68.6402 20.5928 67.8474 19.794 66.8086 19.794H46.7973C45.7585 19.794 44.9657 20.5928 44.9657 21.5569V44.034C44.9657 44.9981 45.7585 45.7969 46.7973 45.7969H66.8086Z" fill="#F5F5F5"/>
<path d="M93.5586 53.0001C92.3694 53.0001 91.2623 52.518 90.4558 51.7192L84.2638 45.4801C83.389 44.5987 82.9926 43.4831 82.9926 42.2849V23.3198C82.9926 22.1216 83.389 21.006 84.2638 20.1245L90.4558 13.8855C91.2486 13.0866 92.3558 12.6046 93.5586 12.6046H110.549C111.738 12.6046 112.845 13.0866 113.652 13.8855L119.844 20.1245C120.719 21.006 121.115 22.1216 121.115 23.3198V42.2849C121.115 43.4831 120.719 44.5987 119.844 45.4801L113.652 51.7192C112.859 52.518 111.752 53.0001 110.549 53.0001H93.5586ZM112.066 45.7969C113.091 45.7969 113.898 44.9981 113.898 44.034V21.5569C113.898 20.5928 113.105 19.794 112.066 19.794H92.055C91.0162 19.794 90.2234 20.5928 90.2234 21.5569V44.034C90.2234 44.9981 91.0162 45.7969 92.055 45.7969H112.066Z" fill="#F5F5F5"/>
<path d="M138.188 20.3586C136.998 20.3586 136.52 19.8766 135.727 19.0778L129.535 12.8387C128.66 11.9573 128.264 10.8417 128.264 9.64344V0.925293H135.495V11.4064C135.495 12.3704 136.288 13.1693 137.326 13.1693H155.902V20.3724H138.201L138.188 20.3586ZM135.167 52.1186L128.975 45.8796C128.578 45.4801 128.264 44.9155 128.264 44.2819V21.5569H135.495V45.7969L151.61 29.5588L156.613 34.517L139.144 52.1186C138.584 52.6833 137.873 53.0001 137.162 53.0001C136.452 53.0001 135.727 52.6833 135.18 52.1186H135.167Z" fill="#F5F5F5"/>
<path d="M160.577 45.8107H191.223L178.36 32.8505L183.281 27.8923L194.955 39.6543C195.433 40.1363 195.747 40.8525 195.747 41.5687V50.5347C195.747 51.1683 195.433 51.8156 194.955 52.215C194.476 52.6971 193.765 53.0138 192.973 53.0138H160.577V45.8107ZM196.144 12.6046V19.8077H165.416L178.36 32.8505L173.44 37.8087L161.766 26.0468C161.288 25.5647 160.974 24.8486 160.974 24.1324V15.0975C160.974 14.4639 161.288 13.8166 161.766 13.4172C162.245 12.9351 162.956 12.6184 163.748 12.6184H196.144V12.6046Z" fill="#F5F5F5"/>
</g>
<defs>
<filter id="filter0_d_79_2" x="0" y="0.925293" width="200.144" height="60.0886" filterUnits="userSpaceOnUse" color-interpolation-filters="sRGB">
<feFlood flood-opacity="0" result="BackgroundImageFix"/>
<feColorMatrix in="SourceAlpha" type="matrix" values="0 0 0 0 0 0 0 0 0 0 0 0 0 0 0 0 0 0 127 0" result="hardAlpha"/>
<feOffset dy="4"/>
<feGaussianBlur stdDeviation="2"/>
<feComposite in2="hardAlpha" operator="out"/>
<feColorMatrix type="matrix" values="0 0 0 0 0 0 0 0 0 0 0 0 0 0 0 0 0 0 0.25 0"/>
<feBlend mode="normal" in2="BackgroundImageFix" result="effect1_dropShadow_79_2"/>
<feBlend mode="normal" in="SourceGraphic" in2="effect1_dropShadow_79_2" result="shape"/>
</filter>
</defs>
</svg>
